<svg width="957" height="476" viewBox="0 0 957 476" fill="none" xmlns="http://www.w3.org/2000/svg">
<g filter="url(#filter0_d_724_269)">
<path d="M419.48 39.28V106H408.536V76.816H377.144V106H366.2V39.28H377.144V67.888H408.536V39.28H419.48ZM464.32 106.672C458.112 106.672 452.384 105.232 447.136 102.352C441.952 99.408 437.824 95.344 434.752 90.16C431.744 84.912 430.24 79.024 430.24 72.496C430.24 65.968 431.744 60.112 434.752 54.928C437.824 49.744 441.952 45.712 447.136 42.832C452.384 39.888 458.112 38.416 464.32 38.416C470.592 38.416 476.32 39.888 481.504 42.832C486.752 45.712 490.88 49.744 493.888 54.928C496.896 60.112 498.4 65.968 498.4 72.496C498.4 79.024 496.896 84.912 493.888 90.16C490.88 95.344 486.752 99.408 481.504 102.352C476.32 105.232 470.592 106.672 464.32 106.672ZM464.32 97.168C468.736 97.168 472.672 96.176 476.128 94.192C479.584 92.144 482.272 89.264 484.192 85.552C486.176 81.776 487.168 77.424 487.168 72.496C487.168 67.568 486.176 63.248 484.192 59.536C482.272 55.824 479.584 52.976 476.128 50.992C472.672 49.008 468.736 48.016 464.32 48.016C459.904 48.016 455.968 49.008 452.512 50.992C449.056 52.976 446.336 55.824 444.352 59.536C442.432 63.248 441.472 67.568 441.472 72.496C441.472 77.424 442.432 81.776 444.352 85.552C446.336 89.264 449.056 92.144 452.512 94.192C455.968 96.176 459.904 97.168 464.32 97.168ZM596.049 39.28L576.273 106H563.889L549.873 55.504L534.993 106L522.705 106.096L503.793 39.28H515.409L529.233 93.616L544.209 39.28H556.497L570.417 93.328L584.337 39.28H596.049Z" fill="white"/>
<path d="M138.86 329.792C126.401 329.792 115.137 327.659 105.068 323.392C95.1693 319.125 87.3187 312.981 81.516 304.96C75.7133 296.939 72.7267 287.467 72.556 276.544H110.956C111.468 283.883 114.028 289.685 118.636 293.952C123.415 298.219 129.9 300.352 138.092 300.352C146.455 300.352 153.025 298.389 157.804 294.464C162.583 290.368 164.972 285.077 164.972 278.592C164.972 273.301 163.351 268.949 160.108 265.536C156.865 262.123 152.769 259.477 147.82 257.6C143.041 255.552 136.385 253.333 127.852 250.944C116.247 247.531 106.775 244.203 99.436 240.96C92.268 237.547 86.0387 232.512 80.748 225.856C75.628 219.029 73.068 209.984 73.068 198.72C73.068 188.139 75.7133 178.923 81.004 171.072C86.2947 163.221 93.7187 157.248 103.276 153.152C112.833 148.885 123.756 146.752 136.044 146.752C154.476 146.752 169.409 151.275 180.844 160.32C192.449 169.195 198.849 181.653 200.044 197.696H160.62C160.279 191.552 157.633 186.517 152.684 182.592C147.905 178.496 141.505 176.448 133.484 176.448C126.487 176.448 120.855 178.24 116.588 181.824C112.492 185.408 110.444 190.613 110.444 197.44C110.444 202.219 111.98 206.229 115.052 209.472C118.295 212.544 122.22 215.104 126.828 217.152C131.607 219.029 138.263 221.248 146.796 223.808C158.401 227.221 167.873 230.635 175.212 234.048C182.551 237.461 188.865 242.581 194.156 249.408C199.447 256.235 202.092 265.195 202.092 276.288C202.092 285.845 199.617 294.72 194.668 302.912C189.719 311.104 182.465 317.675 172.908 322.624C163.351 327.403 152.001 329.792 138.86 329.792ZM269.004 149.312V328H233.164V149.312H269.004ZM428.83 203.072C424.734 195.563 419.102 189.845 411.934 185.92C404.766 181.995 396.403 180.032 386.846 180.032C376.265 180.032 366.878 182.421 358.686 187.2C350.494 191.979 344.094 198.805 339.486 207.68C334.878 216.555 332.574 226.795 332.574 238.4C332.574 250.347 334.878 260.757 339.486 269.632C344.265 278.507 350.835 285.333 359.198 290.112C367.561 294.891 377.289 297.28 388.382 297.28C402.035 297.28 413.214 293.696 421.918 286.528C430.622 279.189 436.339 269.035 439.07 256.064H377.63V228.672H474.398V259.904C472.009 272.363 466.889 283.883 459.038 294.464C451.187 305.045 441.033 313.579 428.574 320.064C416.286 326.379 402.462 329.536 387.102 329.536C369.865 329.536 354.249 325.696 340.254 318.016C326.43 310.165 315.507 299.328 307.486 285.504C299.635 271.68 295.71 255.979 295.71 238.4C295.71 220.821 299.635 205.12 307.486 191.296C315.507 177.301 326.43 166.464 340.254 158.784C354.249 150.933 369.779 147.008 386.846 147.008C406.985 147.008 424.478 151.957 439.326 161.856C454.174 171.584 464.414 185.323 470.046 203.072H428.83ZM695.73 149.312V328H659.89V211.776L612.018 328H584.882L536.754 211.776V328H500.914V149.312H541.618L598.45 282.176L655.282 149.312H695.73ZM840.732 293.952H769.564L757.788 328H720.156L784.412 149.056H826.14L890.396 328H852.508L840.732 293.952ZM831.004 265.28L805.148 190.528L779.292 265.28H831.004Z" fill="white"/>
<path d="M298.424 424.368H270.488L265.688 438H254.264L278.168 371.184H290.84L314.744 438H303.224L298.424 424.368ZM295.352 415.44L284.504 384.432L273.56 415.44H295.352ZM359.794 438L344.434 411.312H336.082V438H325.138V371.28H348.178C353.298 371.28 357.618 372.176 361.138 373.968C364.722 375.76 367.378 378.16 369.106 381.168C370.898 384.176 371.794 387.536 371.794 391.248C371.794 395.6 370.514 399.568 367.954 403.152C365.458 406.672 361.586 409.072 356.338 410.352L372.85 438H359.794ZM336.082 402.576H348.178C352.274 402.576 355.346 401.552 357.394 399.504C359.506 397.456 360.562 394.704 360.562 391.248C360.562 387.792 359.538 385.104 357.49 383.184C355.442 381.2 352.338 380.208 348.178 380.208H336.082V402.576ZM396.738 380.112V399.696H419.778V408.624H396.738V429.072H422.658V438H385.794V371.184H422.658V380.112H396.738ZM510.515 371.28L488.435 413.808V438H477.491V413.808L455.315 371.28H467.507L482.963 404.016L498.419 371.28H510.515ZM549.632 438.672C543.424 438.672 537.696 437.232 532.448 434.352C527.264 431.408 523.136 427.344 520.064 422.16C517.056 416.912 515.552 411.024 515.552 404.496C515.552 397.968 517.056 392.112 520.064 386.928C523.136 381.744 527.264 377.712 532.448 374.832C537.696 371.888 543.424 370.416 549.632 370.416C555.904 370.416 561.632 371.888 566.816 374.832C572.064 377.712 576.192 381.744 579.2 386.928C582.208 392.112 583.712 397.968 583.712 404.496C583.712 411.024 582.208 416.912 579.2 422.16C576.192 427.344 572.064 431.408 566.816 434.352C561.632 437.232 555.904 438.672 549.632 438.672ZM549.632 429.168C554.048 429.168 557.984 428.176 561.44 426.192C564.896 424.144 567.584 421.264 569.504 417.552C571.488 413.776 572.48 409.424 572.48 404.496C572.48 399.568 571.488 395.248 569.504 391.536C567.584 387.824 564.896 384.976 561.44 382.992C557.984 381.008 554.048 380.016 549.632 380.016C545.216 380.016 541.28 381.008 537.824 382.992C534.368 384.976 531.648 387.824 529.664 391.536C527.744 395.248 526.784 399.568 526.784 404.496C526.784 409.424 527.744 413.776 529.664 417.552C531.648 421.264 534.368 424.144 537.824 426.192C541.28 428.176 545.216 429.168 549.632 429.168ZM605.329 371.28V413.808C605.329 418.864 606.641 422.672 609.265 425.232C611.953 427.792 615.665 429.072 620.401 429.072C625.201 429.072 628.913 427.792 631.537 425.232C634.225 422.672 635.569 418.864 635.569 413.808V371.28H646.513V413.616C646.513 419.056 645.329 423.664 642.961 427.44C640.593 431.216 637.425 434.032 633.457 435.888C629.489 437.744 625.105 438.672 620.305 438.672C615.505 438.672 611.121 437.744 607.153 435.888C603.249 434.032 600.145 431.216 597.841 427.44C595.537 423.664 594.385 419.056 594.385 413.616V371.28H605.329ZM678.715 370.32C685.243 370.32 690.459 372.112 694.363 375.696C698.331 379.28 700.315 384.176 700.315 390.384C700.315 396.848 698.267 401.712 694.171 404.976C690.075 408.24 684.635 409.872 677.851 409.872L677.467 417.456H667.963L667.483 402.384H670.651C676.859 402.384 681.595 401.552 684.859 399.888C688.187 398.224 689.851 395.056 689.851 390.384C689.851 386.992 688.859 384.336 686.875 382.416C684.955 380.496 682.267 379.536 678.811 379.536C675.355 379.536 672.635 380.464 670.651 382.32C668.667 384.176 667.674 386.768 667.674 390.096H657.403C657.403 386.256 658.267 382.832 659.995 379.824C661.723 376.816 664.187 374.48 667.387 372.816C670.651 371.152 674.427 370.32 678.715 370.32ZM672.571 438.672C670.587 438.672 668.923 438 667.579 436.656C666.235 435.312 665.562 433.648 665.562 431.664C665.562 429.68 666.235 428.016 667.579 426.672C668.923 425.328 670.587 424.656 672.571 424.656C674.491 424.656 676.123 425.328 677.467 426.672C678.811 428.016 679.483 429.68 679.483 431.664C679.483 433.648 678.811 435.312 677.467 436.656C676.123 438 674.491 438.672 672.571 438.672Z" fill="white"/>
</g>
<defs>
<filter id="filter0_d_724_269" x="-16" y="-12" width="989" height="508" filterUnits="userSpaceOnUse" color-interpolation-filters="sRGB">
<feFlood flood-opacity="0" result="BackgroundImageFix"/>
<feColorMatrix in="SourceAlpha" type="matrix" values="0 0 0 0 0 0 0 0 0 0 0 0 0 0 0 0 0 0 127 0" result="hardAlpha"/>
<feOffset dy="4"/>
<feGaussianBlur stdDeviation="8"/>
<feColorMatrix type="matrix" values="0 0 0 0 0 0 0 0 0 0 0 0 0 0 0 0 0 0 0.5 0"/>
<feBlend mode="normal" in2="BackgroundImageFix" result="effect1_dropShadow_724_269"/>
<feBlend mode="normal" in="SourceGraphic" in2="effect1_dropShadow_724_269" result="shape"/>
</filter>
</defs>
</svg>
